<svg width="160" height="160" viewBox="0 0 160 160" xmlns="http://www.w3.org/2000/svg" role="img" aria-labelledby="title desc">
  <title id="title">Hotel service icon</title>
  <desc id="desc">Hotel building with stars.</desc>
  <rect width="160" height="160" rx="24" fill="#ede7f6" />
  <path d="M50 110h60V60a20 20 0 10-40 0v50z" fill="#5e35b1" />
  <path d="M40 120h80v10H40z" fill="#7e57c2" />
  <g fill="#9575cd">
    <rect x="60" y="70" width="12" height="20" rx="4" />
    <rect x="88" y="70" width="12" height="20" rx="4" />
  </g>
  <g fill="#ffca28">
    <polygon points="40,46 45,60 60,60 48,68 52,82 40,74 28,82 32,68 20,60 35,60" />
    <polygon points="120,46 125,60 140,60 128,68 132,82 120,74 108,82 112,68 100,60 115,60" />
  </g>
</svg>
